<svg xmlns="http://www.w3.org/2000/svg" viewBox="0 0 64 64" role="img" aria-label="Paint palette icon">
  <defs>
    <radialGradient id="palette-body" cx="32" cy="32" r="30" gradientUnits="userSpaceOnUse">
      <stop offset="0" stop-color="#fde68a"/>
      <stop offset=".55" stop-color="#fcd34d"/>
      <stop offset="1" stop-color="#f59e0b"/>
    </radialGradient>
  </defs>
  <path
    fill="url(#palette-body)"
    d="M32 6C18.192 6 7 16.772 7 30.273 7 42.24 15.624 51 26.545 51h1.82c3.14 0 5.135 1.96 5.135 4.681 0 5.632 4.57 10.319 10.263 10.319C53.38 66 61 58.067 61 46.273c0-6.167-2.278-10.937-5.255-14.323-2.852-3.235-3.953-6.024-3.953-9.207C51.792 16.772 45.808 6 32 6Z"
  />
  <circle cx="23" cy="29" r="6" fill="#fff3c4"/>
  <circle cx="40.5" cy="21.5" r="3.5" fill="#6366f1"/>
  <circle cx="46.5" cy="33" r="4" fill="#f472b6"/>
  <circle cx="35.5" cy="38.5" r="3.2" fill="#22d3ee"/>
  <circle cx="27" cy="18.5" r="3" fill="#f97316"/>
  <path
    fill="rgba(255,255,255,0.35)"
    d="M34.4 11.5c-8.8 0-16.2 6.7-16.2 14.7 0 2.4.6 4.5 1.7 6.3 1 1.5 0 3.6-2.2 3.6h-.1c-2.7-.1-5.3-.7-7.7-1.8 1.1 12.7 10.2 21.4 23.1 21.4h1.4c2.6 0 4.3 1.7 4.3 4 0 2.2.8 4.3 2.1 5.9 7.5-1.4 12.6-7.7 12.6-16.5 0-4.8-2-8.2-4.5-11.1-2.6-3.1-4.1-6.1-4.1-10.6 0-8.2-7.3-15.2-16.4-15.2Z"
  />
</svg>
